<svg class="text-b" id="esiJndaluVE1" xmlns="http://www.w3.org/2000/svg" xmlns:xlink="http://www.w3.org/1999/xlink" viewBox="0 0 500 500" shape-rendering="geometricPrecision" text-rendering="geometricPrecision" project-id="db341806d08e4dbaa5bd9d59e5e4741c" export-id="8d6fa969f2b94626af48815153fe62ee" cached="false"><g transform="matrix(.05 0 0-.05 0 500)"><path d="M4525,6904c-17-44,8-50,185-46l170,4v-501-501h205h205l-6,500-5,500h235c379-1,498-49,588-233c75-156,78-547,6-735-12-30,5-33,155-28l167,6l57,110c189,369-48,793-512,913-168,43-1434,53-1450,11Z"/><path d="M2120,6879c0-40,9-42,180-35l180,6v-495-495h211h212l-5,492-4,493l248-4c525-6,628-119,628-686v-295h164h164l22,81c121,449-132,852-597,950-242,51-1403,41-1403-12Z"/><path d="M2340,5520c0-93,7-120,30-120c17,0,30,12,30,26s29,34,65,45c127,37,90,169-47,169h-78v-120Zm140,30c0-17-18-30-40-30s-40,13-40,30s18,30,40,30s40-13,40-30Z"/><path d="M2715,5520c-41-95-46-120-23-120c16,0,34,14,41,30c6,17,33,30,60,30c26,0,53-13,60-30c11-30,67-43,67-15c0,8-20,62-45,120-60,139-95,136-160-15Z"/><path d="M3060,5540c0-55,0-107,0-115s11-15,25-15s25,24,24,55c-1,70,13,69,68-5c65-88,83-74,83,60c0,93-7,120-30,120-20,0-30-21-30-65v-64l-45,64c-66,94-95,84-95-35Z"/><path d="M3420,5520v-120h76c99,0,164,47,164,118c0,78-57,122-157,122h-83v-120Zm170,0c0-40-11-51-55-56-50-6-55-1-55,56s5,62,55,56c44-5,55-16,55-56Z"/><path d="M3844,5626c-69-27-66-164,4-211c41-27,125-15,159,22c96,105-25,245-163,189Zm126-106c0-78-97-72-106,6-6,52-2,56,50,50c45-5,56-16,56-56Z"/><path d="M4194,5628c-39-40-13-109,46-121c78-16,77-47-2-47-81,0-67-48,16-56c127-13,157,114,34,145-57,14-49,39,13,40c21,1,41,10,44,21c6,23-129,39-151,18Z"/><path d="M4700,5519c0-106,5-121,35-114c19,4,33,18,30,31-7,35,54,29,68-6c6-16,29-30,52-30c33,0,36,5,15,31-20,23-21,42-3,81c38,83-4,128-118,128h-79v-121Zm150,31c0-11-20-23-45-26-31-5-45,3-45,26s14,31,45,26c25-3,45-15,45-26Z"/><path d="M5060,5520v-120h90c67,0,90,8,90,30c0,20-20,30-60,30-33,0-60,9-60,20s23,20,50,20c31,0,50,11,50,30c0,23-13,27-50,18-31-8-50-4-50,10c0,12,27,22,60,22c40,0,60,10,60,30c0,22-23,30-90,30h-90v-120Z"/><path d="M5410,5528c-28-62-50-116-50-120c0-23,57-3,67,22c7,17,34,30,60,30c27,0,54-13,60-30c10-25,73-45,73-22c0,39-110,232-132,232-16,0-51-51-78-112Z"/><path d="M5740,5520v-120h90c67,0,90,8,90,30c0,20-20,30-60,30-58,0-60,3-60,90c0,67-8,90-30,90-23,0-30-27-30-120Z"/><path d="M6020,5610c0-17,18-30,40-30c34,0,40-13,40-90c0-67,8-90,30-90s30,23,30,88c0,71,8,89,40,98c82,21,39,54-70,54-84,0-110-7-110-30Z"/><path d="M6340,5625c0-8,18-42,40-75s40-80,40-105c0-27,12-45,30-45s30,18,30,45c0,25,18,72,40,105c48,72,50,90,11,90-16,0-40-20-53-44l-24-45-29,45c-28,42-85,61-85,29Z"/><path d="M2480,4664v-486l-175,4c-158,4-176,1-181-34-5-37,14-38,560-35c518,3,566,6,566,38c0,29-25,34-178,36l-178,3-2,477-2,477-205,3-205,3v-486Z"/><path d="M4888,5142c-4-5-8-210-8-455v-447h-180c-167,0-180-3-180-40c0-39,13-40,560-40s560,1,560,40c0,37-13,40-181,40h-180l2,453l2,454-193,1c-106,1-197-2-202-6Z"/><path d="M6069,5068c7-46,21-199,31-340c27-383,85-514,254-569c149-50,568,30,600,114c18,48-4,49-103,5-234-103-289-31-312,407-9,179-26,357-37,395l-21,70h-212-212l12-82Z"/></g></svg>
